<svg width="349" height="48" viewBox="0 0 349 48" fill="none" xmlns="http://www.w3.org/2000/svg">
<path d="M35.875 39V9.90909H43.7727V32.6364H55.5341V39H35.875ZM58.8402 39V17.1818H66.6811V39H58.8402ZM62.7607 14.9091C61.7 14.9091 60.791 14.5587 60.0334 13.858C59.2758 13.1572 58.897 12.3144 58.897 11.3295C58.897 10.3447 59.2758 9.50189 60.0334 8.80114C60.791 8.10038 61.7 7.75 62.7607 7.75C63.8307 7.75 64.7398 8.10038 65.4879 8.80114C66.2455 9.50189 66.6243 10.3447 66.6243 11.3295C66.6243 12.3144 66.2455 13.1572 65.4879 13.858C64.7398 14.5587 63.8307 14.9091 62.7607 14.9091ZM90.6193 24.2841H83.4034C83.3655 23.839 83.2093 23.4555 82.9347 23.1335C82.66 22.8116 82.3049 22.5653 81.8693 22.3949C81.4432 22.215 80.9697 22.125 80.4489 22.125C79.7765 22.125 79.1989 22.2481 78.7159 22.4943C78.233 22.7405 77.9962 23.0909 78.0057 23.5455C77.9962 23.8674 78.1335 24.1657 78.4176 24.4403C78.7112 24.715 79.2746 24.928 80.108 25.0795L84.5398 25.875C86.7746 26.2822 88.4366 26.9687 89.5256 27.9347C90.6241 28.8911 91.178 30.1742 91.1875 31.7841C91.178 33.3371 90.714 34.6866 89.7955 35.8324C88.8864 36.9687 87.6411 37.8494 86.0597 38.4744C84.4877 39.09 82.6932 39.3977 80.6761 39.3977C77.3428 39.3977 74.7339 38.7159 72.8494 37.3523C70.9744 35.9886 69.928 34.1894 69.7102 31.9545H77.4943C77.5985 32.6458 77.9394 33.1809 78.517 33.5597C79.1042 33.929 79.8428 34.1136 80.733 34.1136C81.4527 34.1136 82.0445 33.9905 82.5085 33.7443C82.982 33.4981 83.2235 33.1477 83.233 32.6932C83.2235 32.2765 83.0152 31.9451 82.608 31.6989C82.2102 31.4527 81.5852 31.2538 80.733 31.1023L76.8693 30.4205C74.6439 30.0322 72.9773 29.2936 71.8693 28.2045C70.7614 27.1155 70.2121 25.714 70.2216 24C70.2121 22.4848 70.6098 21.2017 71.4148 20.1506C72.2292 19.09 73.3892 18.285 74.8949 17.7358C76.41 17.1771 78.2045 16.8977 80.2784 16.8977C83.4318 16.8977 85.9176 17.5511 87.7358 18.858C89.5634 20.1648 90.5246 21.9735 90.6193 24.2841ZM107.203 17.1818V22.8636H92.8281V17.1818H107.203ZM95.6122 11.9545H103.453V31.983C103.453 32.286 103.505 32.5417 103.609 32.75C103.714 32.9489 103.875 33.1004 104.092 33.2045C104.31 33.2992 104.589 33.3466 104.93 33.3466C105.167 33.3466 105.442 33.3182 105.754 33.2614C106.076 33.2045 106.313 33.1572 106.464 33.1193L107.601 38.6307C107.25 38.7348 106.749 38.8627 106.095 39.0142C105.451 39.1657 104.684 39.2652 103.794 39.3125C101.995 39.4072 100.484 39.2225 99.2628 38.7585C98.0412 38.285 97.1226 37.5417 96.5071 36.5284C95.8916 35.5152 95.5933 34.2462 95.6122 32.7216V11.9545ZM116.482 39.3409C115.09 39.3409 113.859 39.1136 112.789 38.6591C111.728 38.1951 110.895 37.4943 110.289 36.5568C109.683 35.6193 109.38 34.4261 109.38 32.9773C109.38 31.7841 109.584 30.7661 109.991 29.9233C110.398 29.071 110.966 28.375 111.695 27.8352C112.424 27.2955 113.272 26.8835 114.238 26.5994C115.213 26.3153 116.264 26.1307 117.391 26.0455C118.613 25.9508 119.593 25.8371 120.332 25.7045C121.08 25.5625 121.62 25.3684 121.951 25.1222C122.282 24.8665 122.448 24.5303 122.448 24.1136V24.0568C122.448 23.4886 122.23 23.053 121.795 22.75C121.359 22.447 120.8 22.2955 120.119 22.2955C119.371 22.2955 118.76 22.4612 118.286 22.7926C117.822 23.1146 117.543 23.6117 117.448 24.2841H110.232C110.327 22.9583 110.748 21.7367 111.496 20.6193C112.254 19.4924 113.357 18.5928 114.806 17.9205C116.255 17.2386 118.064 16.8977 120.232 16.8977C121.795 16.8977 123.196 17.0824 124.437 17.4517C125.677 17.8116 126.733 18.3182 127.604 18.9716C128.476 19.6155 129.138 20.3731 129.593 21.2443C130.057 22.1061 130.289 23.0436 130.289 24.0568V39H122.96V35.9318H122.789C122.353 36.7462 121.823 37.4044 121.198 37.9062C120.583 38.4081 119.877 38.7727 119.082 39C118.296 39.2273 117.429 39.3409 116.482 39.3409ZM119.039 34.3977C119.636 34.3977 120.194 34.2746 120.715 34.0284C121.246 33.7822 121.676 33.4271 122.008 32.9631C122.339 32.4991 122.505 31.9356 122.505 31.2727V29.4545C122.297 29.5398 122.074 29.6203 121.837 29.696C121.61 29.7718 121.364 29.8428 121.099 29.9091C120.843 29.9754 120.568 30.0369 120.275 30.0938C119.991 30.1506 119.692 30.2027 119.38 30.25C118.774 30.3447 118.277 30.5009 117.888 30.7188C117.51 30.9271 117.226 31.1875 117.036 31.5C116.856 31.803 116.766 32.1439 116.766 32.5227C116.766 33.1288 116.979 33.5928 117.406 33.9148C117.832 34.2367 118.376 34.3977 119.039 34.3977ZM149.902 39.2841C148.349 39.2841 146.919 38.8769 145.612 38.0625C144.315 37.2481 143.273 36.0123 142.487 34.3551C141.711 32.6979 141.322 30.6098 141.322 28.0909C141.322 25.4583 141.73 23.3182 142.544 21.6705C143.368 20.0227 144.429 18.8153 145.726 18.0483C147.033 17.2812 148.406 16.8977 149.845 16.8977C150.925 16.8977 151.872 17.0871 152.686 17.4659C153.5 17.8352 154.182 18.3324 154.732 18.9574C155.281 19.5729 155.697 20.25 155.982 20.9886H156.095V9.90909H163.936V39H156.152V35.4205H155.982C155.679 36.1591 155.243 36.822 154.675 37.4091C154.116 37.9867 153.434 38.446 152.629 38.7869C151.834 39.1184 150.925 39.2841 149.902 39.2841ZM152.8 33.2614C153.519 33.2614 154.135 33.053 154.646 32.6364C155.167 32.2102 155.565 31.6136 155.839 30.8466C156.124 30.0701 156.266 29.1515 156.266 28.0909C156.266 27.0114 156.124 26.0881 155.839 25.321C155.565 24.5445 155.167 23.9527 154.646 23.5455C154.135 23.1288 153.519 22.9205 152.8 22.9205C152.08 22.9205 151.464 23.1288 150.953 23.5455C150.451 23.9527 150.063 24.5445 149.788 25.321C149.523 26.0881 149.391 27.0114 149.391 28.0909C149.391 29.1705 149.523 30.0985 149.788 30.875C150.063 31.642 150.451 32.2339 150.953 32.6506C151.464 33.0578 152.08 33.2614 152.8 33.2614ZM178.24 39.3977C175.911 39.3977 173.903 38.9527 172.217 38.0625C170.541 37.1629 169.249 35.875 168.339 34.1989C167.44 32.5133 166.99 30.4962 166.99 28.1477C166.99 25.8939 167.445 23.9242 168.354 22.2386C169.263 20.553 170.546 19.2415 172.203 18.304C173.86 17.3665 175.816 16.8977 178.07 16.8977C179.717 16.8977 181.209 17.1534 182.544 17.6648C183.879 18.1761 185.02 18.9195 185.967 19.8949C186.914 20.8608 187.643 22.035 188.155 23.4176C188.666 24.8002 188.922 26.358 188.922 28.0909V29.9091H169.433V25.5909H181.706C181.696 24.9659 181.536 24.4167 181.223 23.9432C180.92 23.4602 180.508 23.0862 179.987 22.821C179.476 22.5464 178.893 22.4091 178.24 22.4091C177.606 22.4091 177.023 22.5464 176.493 22.821C175.963 23.0862 175.536 23.4555 175.214 23.929C174.902 24.4025 174.736 24.9564 174.717 25.5909V30.25C174.717 30.9508 174.864 31.5758 175.158 32.125C175.451 32.6742 175.873 33.1051 176.422 33.4176C176.971 33.7301 177.634 33.8864 178.411 33.8864C178.95 33.8864 179.443 33.8106 179.888 33.6591C180.342 33.5076 180.731 33.2898 181.053 33.0057C181.375 32.7121 181.611 32.3617 181.763 31.9545H188.922C188.676 33.4697 188.093 34.786 187.175 35.9034C186.256 37.0114 185.039 37.8731 183.524 38.4886C182.018 39.0947 180.257 39.3977 178.24 39.3977Z" fill="#4EA8DE"/>
<path d="M199.181 16.2727V9.90909H224.465V16.2727H215.715V39H207.931V16.2727H199.181ZM230.662 39.3409C229.27 39.3409 228.039 39.1136 226.969 38.6591C225.908 38.1951 225.075 37.4943 224.469 36.5568C223.863 35.6193 223.56 34.4261 223.56 32.9773C223.56 31.7841 223.763 30.7661 224.17 29.9233C224.578 29.071 225.146 28.375 225.875 27.8352C226.604 27.2955 227.452 26.8835 228.418 26.5994C229.393 26.3153 230.444 26.1307 231.571 26.0455C232.793 25.9508 233.773 25.8371 234.511 25.7045C235.259 25.5625 235.799 25.3684 236.131 25.1222C236.462 24.8665 236.628 24.5303 236.628 24.1136V24.0568C236.628 23.4886 236.41 23.053 235.974 22.75C235.539 22.447 234.98 22.2955 234.298 22.2955C233.55 22.2955 232.939 22.4612 232.466 22.7926C232.002 23.1146 231.723 23.6117 231.628 24.2841H224.412C224.507 22.9583 224.928 21.7367 225.676 20.6193C226.434 19.4924 227.537 18.5928 228.986 17.9205C230.435 17.2386 232.243 16.8977 234.412 16.8977C235.974 16.8977 237.376 17.0824 238.616 17.4517C239.857 17.8116 240.913 18.3182 241.784 18.9716C242.655 19.6155 243.318 20.3731 243.773 21.2443C244.237 22.1061 244.469 23.0436 244.469 24.0568V39H237.139V35.9318H236.969C236.533 36.7462 236.003 37.4044 235.378 37.9062C234.762 38.4081 234.057 38.7727 233.261 39C232.475 39.2273 231.609 39.3409 230.662 39.3409ZM233.219 34.3977C233.815 34.3977 234.374 34.2746 234.895 34.0284C235.425 33.7822 235.856 33.4271 236.188 32.9631C236.519 32.4991 236.685 31.9356 236.685 31.2727V29.4545C236.476 29.5398 236.254 29.6203 236.017 29.696C235.79 29.7718 235.544 29.8428 235.278 29.9091C235.023 29.9754 234.748 30.0369 234.455 30.0938C234.17 30.1506 233.872 30.2027 233.56 30.25C232.954 30.3447 232.456 30.5009 232.068 30.7188C231.689 30.9271 231.405 31.1875 231.216 31.5C231.036 31.803 230.946 32.1439 230.946 32.5227C230.946 33.1288 231.159 33.5928 231.585 33.9148C232.011 34.2367 232.556 34.3977 233.219 34.3977ZM248.215 39V17.1818H255.829V21.3295H256.056C256.454 19.7955 257.084 18.6733 257.945 17.9631C258.817 17.2528 259.835 16.8977 260.999 16.8977C261.34 16.8977 261.676 16.9261 262.008 16.983C262.349 17.0303 262.675 17.1013 262.988 17.196V23.8864C262.6 23.7538 262.121 23.6544 261.553 23.5881C260.985 23.5218 260.497 23.4886 260.09 23.4886C259.323 23.4886 258.632 23.6638 258.016 24.0142C257.41 24.3551 256.932 24.8381 256.582 25.4631C256.231 26.0786 256.056 26.803 256.056 27.6364V39H248.215ZM274.763 39.3977C272.434 39.3977 270.426 38.9527 268.741 38.0625C267.065 37.1629 265.772 35.875 264.863 34.1989C263.963 32.5133 263.513 30.4962 263.513 28.1477C263.513 25.8939 263.968 23.9242 264.877 22.2386C265.786 20.553 267.069 19.2415 268.727 18.304C270.384 17.3665 272.339 16.8977 274.593 16.8977C276.241 16.8977 277.732 17.1534 279.067 17.6648C280.403 18.1761 281.544 18.9195 282.491 19.8949C283.438 20.8608 284.167 22.035 284.678 23.4176C285.19 24.8002 285.445 26.358 285.445 28.0909V29.9091H265.957V25.5909H278.229C278.22 24.9659 278.059 24.4167 277.746 23.9432C277.443 23.4602 277.031 23.0862 276.511 22.821C275.999 22.5464 275.417 22.4091 274.763 22.4091C274.129 22.4091 273.547 22.5464 273.016 22.821C272.486 23.0862 272.06 23.4555 271.738 23.929C271.425 24.4025 271.26 24.9564 271.241 25.5909V30.25C271.241 30.9508 271.388 31.5758 271.681 32.125C271.975 32.6742 272.396 33.1051 272.945 33.4176C273.495 33.7301 274.157 33.8864 274.934 33.8864C275.474 33.8864 275.966 33.8106 276.411 33.6591C276.866 33.5076 277.254 33.2898 277.576 33.0057C277.898 32.7121 278.135 32.3617 278.286 31.9545H285.445C285.199 33.4697 284.617 34.786 283.698 35.9034C282.78 37.0114 281.563 37.8731 280.048 38.4886C278.542 39.0947 276.781 39.3977 274.763 39.3977ZM301.713 17.1818V22.8636H287.111V17.1818H301.713ZM289.895 39V16.5568C289.895 14.7576 290.217 13.2661 290.861 12.0824C291.505 10.8987 292.414 10.0133 293.588 9.42614C294.762 8.83901 296.145 8.54545 297.736 8.54545C298.73 8.54545 299.696 8.62121 300.634 8.77273C301.58 8.92424 302.281 9.05682 302.736 9.17045L301.599 14.7955C301.315 14.7102 300.984 14.6439 300.605 14.5966C300.226 14.5398 299.895 14.5114 299.611 14.5114C298.872 14.5114 298.375 14.6676 298.119 14.9801C297.864 15.2926 297.736 15.7045 297.736 16.2159V39H289.895ZM309.92 39.3409C308.528 39.3409 307.297 39.1136 306.227 38.6591C305.166 38.1951 304.333 37.4943 303.727 36.5568C303.121 35.6193 302.817 34.4261 302.817 32.9773C302.817 31.7841 303.021 30.7661 303.428 29.9233C303.835 29.071 304.404 28.375 305.133 27.8352C305.862 27.2955 306.71 26.8835 307.675 26.5994C308.651 26.3153 309.702 26.1307 310.829 26.0455C312.05 25.9508 313.031 25.8371 313.769 25.7045C314.517 25.5625 315.057 25.3684 315.388 25.1222C315.72 24.8665 315.886 24.5303 315.886 24.1136V24.0568C315.886 23.4886 315.668 23.053 315.232 22.75C314.797 22.447 314.238 22.2955 313.556 22.2955C312.808 22.2955 312.197 22.4612 311.724 22.7926C311.26 23.1146 310.98 23.6117 310.886 24.2841H303.67C303.764 22.9583 304.186 21.7367 304.934 20.6193C305.692 19.4924 306.795 18.5928 308.244 17.9205C309.692 17.2386 311.501 16.8977 313.67 16.8977C315.232 16.8977 316.634 17.0824 317.874 17.4517C319.115 17.8116 320.171 18.3182 321.042 18.9716C321.913 19.6155 322.576 20.3731 323.031 21.2443C323.495 22.1061 323.727 23.0436 323.727 24.0568V39H316.397V35.9318H316.227C315.791 36.7462 315.261 37.4044 314.636 37.9062C314.02 38.4081 313.315 38.7727 312.519 39C311.733 39.2273 310.867 39.3409 309.92 39.3409ZM312.477 34.3977C313.073 34.3977 313.632 34.2746 314.153 34.0284C314.683 33.7822 315.114 33.4271 315.445 32.9631C315.777 32.4991 315.942 31.9356 315.942 31.2727V29.4545C315.734 29.5398 315.512 29.6203 315.275 29.696C315.048 29.7718 314.801 29.8428 314.536 29.9091C314.281 29.9754 314.006 30.0369 313.712 30.0938C313.428 30.1506 313.13 30.2027 312.817 30.25C312.211 30.3447 311.714 30.5009 311.326 30.7188C310.947 30.9271 310.663 31.1875 310.474 31.5C310.294 31.803 310.204 32.1439 310.204 32.5227C310.204 33.1288 310.417 33.5928 310.843 33.9148C311.269 34.2367 311.814 34.3977 312.477 34.3977ZM347.416 24.2841H340.2C340.162 23.839 340.006 23.4555 339.732 23.1335C339.457 22.8116 339.102 22.5653 338.666 22.3949C338.24 22.215 337.767 22.125 337.246 22.125C336.573 22.125 335.996 22.2481 335.513 22.4943C335.03 22.7405 334.793 23.0909 334.803 23.5455C334.793 23.8674 334.93 24.1657 335.214 24.4403C335.508 24.715 336.071 24.928 336.905 25.0795L341.337 25.875C343.571 26.2822 345.233 26.9687 346.322 27.9347C347.421 28.8911 347.975 30.1742 347.984 31.7841C347.975 33.3371 347.511 34.6866 346.592 35.8324C345.683 36.9687 344.438 37.8494 342.857 38.4744C341.285 39.09 339.49 39.3977 337.473 39.3977C334.14 39.3977 331.531 38.7159 329.646 37.3523C327.771 35.9886 326.725 34.1894 326.507 31.9545H334.291C334.395 32.6458 334.736 33.1809 335.314 33.5597C335.901 33.929 336.64 34.1136 337.53 34.1136C338.25 34.1136 338.841 33.9905 339.305 33.7443C339.779 33.4981 340.02 33.1477 340.03 32.6932C340.02 32.2765 339.812 31.9451 339.405 31.6989C339.007 31.4527 338.382 31.2538 337.53 31.1023L333.666 30.4205C331.441 30.0322 329.774 29.2936 328.666 28.2045C327.558 27.1155 327.009 25.714 327.018 24C327.009 22.4848 327.407 21.2017 328.212 20.1506C329.026 19.09 330.186 18.285 331.692 17.7358C333.207 17.1771 335.001 16.8977 337.075 16.8977C340.229 16.8977 342.714 17.5511 344.533 18.858C346.36 20.1648 347.321 21.9735 347.416 24.2841Z" fill="#5E60CE"/>
<g clip-path="url(#clip0_43_109)">
<path d="M11.0215 12.933C14.1472 16.9011 15.8158 21.7944 15.7553 26.8155V28.0141L16.7865 28.6416C18.119 29.4482 19.1127 30.6993 19.5866 32.1669C19.1705 31.8605 18.7352 31.5803 18.2833 31.3278L15.5333 29.7838L15.0391 32.9001C14.9963 33.1755 14.9389 33.4485 14.8672 33.718H7.16151C7.04692 33.3655 6.95382 33.0129 6.86789 32.6463L6.24484 29.8261L3.70968 31.2362C3.28615 31.473 2.87723 31.7344 2.48507 32.0188C2.96824 30.5682 3.94123 29.3242 5.24224 28.4935L6.22336 27.866V26.7521C6.24106 21.7513 7.92967 16.8952 11.0287 12.933H11.0215ZM11.0287 10C10.868 10.0004 10.7128 10.058 10.5918 10.1622L10.5274 10.2186C6.39778 14.7656 4.10466 20.6454 4.08208 26.745C2.32967 27.8643 1.03251 29.5543 0.417263 31.5197C-0.197979 33.485 -0.0921719 35.6007 0.716194 37.4971C1.56776 35.6455 2.99131 34.1058 4.7839 33.0975C4.96368 33.8642 5.2031 34.6161 5.50005 35.3467C5.53771 35.4871 5.62118 35.6114 5.73763 35.7006C5.85408 35.7898 5.99706 35.8388 6.14458 35.8402H16.0847C16.2852 35.8402 16.4857 35.6498 16.586 35.3537C16.8758 34.6592 17.0778 33.9322 17.1875 33.1892C18.9836 34.1932 20.4083 35.7342 21.2553 37.5887C22.1124 35.7017 22.2451 33.5727 21.6287 31.5967C21.0124 29.6206 19.6888 27.9319 17.9037 26.8437C17.9745 20.7082 15.6935 14.7718 11.5157 10.2186C11.4535 10.1501 11.3773 10.0952 11.2922 10.0576C11.2071 10.0199 11.1149 10.0003 11.0215 10H11.0287Z" fill="#4EA8DE"/>
<path d="M11.0216 26.1598C10.4715 26.1598 9.93376 25.9995 9.47611 25.699C9.01846 25.3986 8.6614 24.9715 8.44993 24.4716C8.23847 23.9716 8.18206 23.4213 8.28782 22.8898C8.39358 22.3584 8.65678 21.8697 9.04423 21.4853C9.43169 21.1009 9.92606 20.838 10.465 20.7298C11.004 20.6216 11.5634 20.6729 12.0728 20.8773C12.5822 21.0816 13.0188 21.4298 13.3275 21.8781C13.6361 22.3263 13.8031 22.8545 13.8074 23.396C13.8159 23.7469 13.7542 24.0961 13.6256 24.4235C13.4971 24.751 13.3043 25.0503 13.0582 25.3043C12.8121 25.5583 12.5176 25.7622 12.1915 25.9041C11.8654 26.0461 11.5141 26.1234 11.1576 26.1316C11.1126 26.1387 11.0666 26.1387 11.0216 26.1316V26.1598Z" fill="#4EA8DE"/>
<path d="M14.8959 37.5958C14.7167 37.5901 14.5382 37.6198 14.3708 37.683C14.2034 37.7462 14.0505 37.8416 13.9211 37.9638C13.7917 38.086 13.6884 38.2323 13.6172 38.3943C13.546 38.5563 13.5084 38.7307 13.5066 38.9072V43.067C13.5066 43.4297 13.653 43.7776 13.9135 44.0342C14.1741 44.2907 14.5274 44.4348 14.8959 44.4348C15.2644 44.4348 15.6178 44.2907 15.8783 44.0342C16.1389 43.7776 16.2852 43.4297 16.2852 43.067V38.9636C16.291 38.7877 16.2611 38.6126 16.1973 38.4482C16.1336 38.2839 16.0372 38.1337 15.9139 38.0064C15.7906 37.879 15.6428 37.7772 15.4791 37.7067C15.3154 37.6362 15.139 37.5985 14.9604 37.5958H14.8959Z" fill="#5E60CE"/>
<path d="M7.16154 37.5958C6.97931 37.5863 6.797 37.613 6.62546 37.6743C6.45392 37.7356 6.29665 37.8302 6.16302 37.9526C6.02939 38.0749 5.92213 38.2225 5.84761 38.3865C5.77309 38.5505 5.73284 38.7275 5.72925 38.9072V43.067C5.72925 43.4297 5.87562 43.7777 6.13617 44.0342C6.39672 44.2907 6.7501 44.4348 7.11857 44.4348C7.48704 44.4348 7.84042 44.2907 8.10097 44.0342C8.36152 43.7777 8.50789 43.4297 8.50789 43.067V38.9636C8.51362 38.7877 8.48373 38.6126 8.41998 38.4482C8.35623 38.2839 8.25989 38.1337 8.13658 38.0064C8.01326 37.879 7.86544 37.7772 7.70173 37.7067C7.53802 37.6362 7.36169 37.5985 7.18302 37.5958H7.16154Z" fill="#5E60CE"/>
<path d="M10.9213 37.5958C10.7426 37.592 10.5649 37.623 10.3984 37.6869C10.2318 37.7507 10.0797 37.8463 9.95068 37.9681C9.82167 38.0899 9.71828 38.2355 9.64644 38.3966C9.5746 38.5577 9.5357 38.7312 9.53198 38.9072V44.6392C9.53198 45.002 9.67836 45.3499 9.93891 45.6064C10.1995 45.8629 10.5528 46.007 10.9213 46.007C11.2898 46.007 11.6432 45.8629 11.9037 45.6064C12.1643 45.3499 12.3106 45.002 12.3106 44.6392V38.9988C12.3164 38.823 12.2865 38.6478 12.2227 38.4835C12.159 38.3191 12.0626 38.1689 11.9393 38.0416C11.816 37.9143 11.6682 37.8124 11.5045 37.7419C11.3408 37.6714 11.1644 37.6337 10.9858 37.631L10.9213 37.5958Z" fill="#5E60CE"/>
</g>
<defs>
<clipPath id="clip0_43_109">
<rect width="22" height="36" fill="white" transform="translate(0 10)"/>
</clipPath>
</defs>
</svg>
